<svg width="100" height="100" viewBox="0 0 100 100" fill="none" xmlns="http://www.w3.org/2000/svg">
<rect width="100" height="100" fill="white"/>
<path d="M82.7832 10.9375H17.2168C13.75 10.9375 10.9375 13.75 10.9375 17.2168V82.7832C10.9375 86.25 13.75 89.0625 17.2168 89.0625H82.7832C86.25 89.0625 89.0625 86.25 89.0625 82.7832V17.2168C89.0625 13.75 86.25 10.9375 82.7832 10.9375ZM82.7832 82.8125C39.0527 82.8027 17.1875 82.793 17.1875 82.7832C17.1973 39.0527 17.207 17.1875 17.2168 17.1875C60.9473 17.1973 82.8125 17.207 82.8125 17.2168C82.8027 60.9473 82.793 82.8125 82.7832 82.8125ZM22.5195 40.2246H34.1113V77.5098H22.5195V40.2246ZM28.3203 35.127C32.0215 35.127 35.0391 32.1191 35.0391 28.4082C35.0391 27.5259 34.8653 26.6522 34.5276 25.837C34.19 25.0219 33.6951 24.2812 33.0712 23.6573C32.4473 23.0334 31.7066 22.5385 30.8915 22.2009C30.0763 21.8632 29.2026 21.6895 28.3203 21.6895C27.438 21.6895 26.5643 21.8632 25.7492 22.2009C24.934 22.5385 24.1933 23.0334 23.5694 23.6573C22.9455 24.2812 22.4506 25.0219 22.113 25.837C21.7753 26.6522 21.6016 27.5259 21.6016 28.4082C21.5918 32.1191 24.5996 35.127 28.3203 35.127ZM52.959 59.0625C52.959 54.1992 53.8867 49.4922 59.9121 49.4922C65.8496 49.4922 65.9375 55.0488 65.9375 59.375V77.5098H77.5195V57.0605C77.5195 47.0215 75.3516 39.2969 63.623 39.2969C57.9883 39.2969 54.209 42.3926 52.6562 45.3223H52.5V40.2246H41.377V77.5098H52.959V59.0625Z" fill="#0038FF"/>
</svg>
